<svg width="121" height="125" viewBox="0 0 121 125" fill="none" xmlns="http://www.w3.org/2000/svg">
<g clip-path="url(#clip0_201_199)">
<path d="M119.245 45.6867C117.35 41.2619 113.536 39.725 109.838 38.7654C104.676 37.4988 99.3227 36.7713 94.0858 36.6209C69.9436 36.5604 49.3597 45.696 32.216 62.4497C27.8724 66.7248 24.0691 71.6922 19.6117 76.8911C16.7524 71.1584 17.7801 64.3455 15.1513 58.2663C13.0369 60.1921 13.1949 62.4627 13.2752 64.3486C13.6352 72.0843 14.1108 79.8968 14.7789 87.6708C15.132 91.4038 16.4818 92.6345 19.9459 91.9394C27.1824 90.5874 33.2986 87.1578 38.1021 81.6893C38.2557 81.4583 38.1392 80.8811 38.0607 79.9959C32.243 77.9601 29.175 85.0823 23.36 84.5475C26.8093 75.3467 33.2664 68.6454 40.2637 62.6366C47.6071 56.3582 55.4139 50.8877 64.4178 47.3792C73.2292 43.9093 82.3522 42.479 91.8231 41.7797C101.255 40.8881 110.268 42.3829 119.245 45.6867Z" fill="#1053F3"/>
</g>
<defs>
<clipPath id="clip0_201_199">
<rect width="79.9023" height="96.9307" fill="white" transform="matrix(-0.832722 -0.553691 -0.553691 0.832722 120.206 44.2412)"/>
</clipPath>
</defs>
</svg>
